<svg width="72" height="56" viewBox="0 0 72 56" fill="none" xmlns="http://www.w3.org/2000/svg">
<path d="M14.256 4V8.608H10.08V22H4.32V8.608H0.144V4H14.256ZM27.3506 11.032V15.208H21.5906V17.392H28.6466V22H15.8306V4H28.5026L27.7826 8.608H21.5906V11.032H27.3506ZM36.0324 19.144L35.3844 22H29.3124L33.9684 4H42.8724L47.5284 22H41.4564L40.7844 19.144H36.0324ZM38.5764 9.52H38.2644L37.0884 14.56H39.7284L38.5764 9.52ZM0.72 51.688L1.536 46.936C3.296 47.368 4.888 47.584 6.312 47.584C7.032 47.584 7.664 47.576 8.208 47.56C8.768 47.528 9.264 47.48 9.696 47.416V45.976L7.104 45.76C5.936 45.648 4.96 45.456 4.176 45.184C3.392 44.912 2.76 44.544 2.28 44.08C1.816 43.6 1.48 43.032 1.272 42.376C1.08 41.704 0.984 40.92 0.984 40.024C0.984 38.792 1.112 37.768 1.368 36.952C1.624 36.12 2.032 35.456 2.592 34.96C3.152 34.448 3.872 34.088 4.752 33.88C5.648 33.672 6.736 33.568 8.016 33.568C10.56 33.568 12.864 33.808 14.928 34.288L14.208 38.896C12.416 38.608 10.984 38.464 9.912 38.464C8.84 38.464 7.928 38.512 7.176 38.608V40.024L9.24 40.216C10.504 40.344 11.56 40.56 12.408 40.864C13.256 41.152 13.936 41.536 14.448 42.016C14.976 42.496 15.344 43.064 15.552 43.72C15.776 44.376 15.888 45.128 15.888 45.976C15.888 47.192 15.728 48.216 15.408 49.048C15.088 49.88 14.704 50.512 14.256 50.944C13.888 51.296 13.432 51.576 12.888 51.784C12.344 51.976 11.768 52.12 11.16 52.216C10.552 52.312 9.936 52.368 9.312 52.384C8.704 52.416 8.152 52.432 7.656 52.432C6.408 52.432 5.208 52.368 4.056 52.24C2.904 52.112 1.792 51.928 0.72 51.688ZM33.8972 52H28.1372V45.64H23.8172V52H18.0572V34H23.8172V40.36H28.1372V34H33.8972V52ZM35.9198 43.024C35.9198 41.376 36.0558 39.96 36.3278 38.776C36.6158 37.576 37.0878 36.592 37.7438 35.824C38.4158 35.056 39.2958 34.488 40.3838 34.12C41.4718 33.752 42.8158 33.568 44.4158 33.568C46.0318 33.568 47.3758 33.752 48.4478 34.12C49.5358 34.488 50.4078 35.056 51.0638 35.824C51.7358 36.592 52.2078 37.576 52.4798 38.776C52.7678 39.96 52.9118 41.376 52.9118 43.024C52.9118 44.592 52.7838 45.968 52.5278 47.152C52.2718 48.32 51.8158 49.296 51.1598 50.08C50.5198 50.864 49.6478 51.456 48.5438 51.856C47.4558 52.24 46.0798 52.432 44.4158 52.432C42.7518 52.432 41.3678 52.24 40.2638 51.856C39.1758 51.456 38.3038 50.864 37.6478 50.08C37.0078 49.296 36.5598 48.32 36.3038 47.152C36.0478 45.968 35.9198 44.592 35.9198 43.024ZM42.1118 40.024V47.512H44.5118C45.3118 47.512 45.8798 47.424 46.2158 47.248C46.5678 47.056 46.7438 46.632 46.7438 45.976V38.488H44.3198C43.5518 38.488 42.9918 38.584 42.6398 38.776C42.2878 38.952 42.1118 39.368 42.1118 40.024ZM64.4284 47.656H60.6844V52H54.9244V34H63.9964C68.1244 34 70.1884 36.216 70.1884 40.648C70.1884 41.624 70.0924 42.536 69.9004 43.384C69.7084 44.232 69.3804 44.976 68.9164 45.616C68.4684 46.24 67.8764 46.736 67.1404 47.104C66.4204 47.472 65.5164 47.656 64.4284 47.656ZM62.0044 38.608H60.6844V43.048H62.0044C62.7084 43.048 63.2124 42.976 63.5164 42.832C63.8364 42.688 63.9964 42.352 63.9964 41.824V39.808C63.9964 39.296 63.8364 38.968 63.5164 38.824C63.2124 38.68 62.7084 38.608 62.0044 38.608Z" fill="black"/>
</svg>
